<svg xmlns="http://www.w3.org/2000/svg" class="icon" version="1" viewBox="0 0 1065 1024"><defs/><path fill="#d81e06" d="M565 11c31 0 59 33 68 56 17 44-26 70-67 70-33 0-64-16-62-53 2-25 25-68 56-72a43 43 0 0 1 5-1"/><path fill="#d81e06" d="M566 149c-23 0-44-8-58-21a57 57 0 0 1-15-45c1-15 8-34 18-49 13-19 30-31 47-33l1-1a55 55 0 0 1 6 0h10l-1 1c11 2 26 7 41 21 12 12 23 27 29 41 7 20 5 39-6 54-7 10-18 18-32 24a106 106 0 0 1-40 8zm-2-137h-5c-13 2-27 12-38 28-9 14-16 31-16 44-1 14 3 26 12 35 11 12 29 18 49 18a95 95 0 0 0 36-7c11-5 21-11 27-20 8-12 10-27 4-43-5-12-15-26-26-36-17-16-32-19-42-19z"/><path fill="#d81e06" d="M757 100c33 0 65 18 92 38 150 111 229 297 198 471S872 936 689 991a540 540 0 0 1-154 22c-169 0-338-76-435-204-54-72-86-158-88-246-3-114 43-228 126-312-49 128-82 271-33 399 30 80 91 149 166 200a496 496 0 0 0 270 86c142 0 280-72 355-181 79-113 89-262 32-386-30-66-80-126-151-155-31-13-83-27-84-66 0-23 23-43 49-47h2a89 89 0 0 1 12-1"/><path fill="#d81e06" d="M538 1024h-3a604 604 0 0 1-249-55c-80-36-147-89-195-153a455 455 0 0 1-66-120A423 423 0 0 1 0 563c-3-117 44-234 130-320l39-40-20 52c-28 74-46 138-53 197a471 471 0 0 0-2 99 360 360 0 0 0 22 95c14 38 36 74 64 108a475 475 0 0 0 98 86 510 510 0 0 0 117 59 453 453 0 0 0 130 25 407 407 0 0 0 213-48 375 375 0 0 0 213-312 389 389 0 0 0-33-191c-16-33-36-63-59-88-25-27-54-48-86-61l-14-5c-32-12-77-29-78-71 0-14 7-28 19-39a80 80 0 0 1 40-19l3-1a101 101 0 0 1 12 0l1-1h1c30 0 62 14 99 41a522 522 0 0 1 171 216c36 87 47 179 31 266a454 454 0 0 1-44 129 514 514 0 0 1-81 112 544 544 0 0 1-109 90 536 536 0 0 1-286 82zM138 251A432 432 0 0 0 12 563a411 411 0 0 0 25 129 443 443 0 0 0 63 117c47 62 113 114 191 150a592 592 0 0 0 244 53c101 1 198-27 283-80a532 532 0 0 0 107-88 502 502 0 0 0 78-110 442 442 0 0 0 44-125c15-85 5-175-31-259a510 510 0 0 0-167-212c-34-25-64-38-91-38h-2a89 89 0 0 0-12 1h-2a69 69 0 0 0-34 17c-10 8-15 19-15 30 0 34 41 49 70 60l14 5c34 14 64 36 91 64 24 26 44 57 60 91a400 400 0 0 1 35 198 387 387 0 0 1-219 321 445 445 0 0 1-219 49 464 464 0 0 1-134-26 522 522 0 0 1-120-60 487 487 0 0 1-100-88c-29-35-52-72-66-111a372 372 0 0 1-23-99 483 483 0 0 1 3-102c7-59 24-124 53-199z"/><path fill="#d81e06" d="M473 334a46 46 0 0 1 6 1c19 3 27 19 18 40-12 26-21 53-19 80 2 18 11 24 23 24 11 0 23-5 33-12 52-37 97-81 152-114 9-5 22-12 34-12h1c19 0 14 15 5 25-18 20-46 28-70 41-44 23-102 60-116 107-6 21-2 44 8 64 21 40 70 78 118 89a120 120 0 0 0 25 2c20 0 40-5 55-16 9-7 35-39 52-39 5 0 9 3 12 12 11 38-32 64-65 76-24 9-50 14-76 14a237 237 0 0 1-78-13c-51-18-94-56-115-102-6-11-13-16-20-16-11 0-21 12-24 27-9 45 4 94-15 136-4 9-16 22-27 22-4 0-8-2-11-6-13-16-8-40-6-59 9-80 42-156 45-236 1-26-6-60-38-68a54 54 0 0 0-12-1c-20 0-38 12-51 26-14 15-22 42-42 51a30 30 0 0 1-12 2c-15 0-29-10-33-24-11-36 31-60 61-72a802 802 0 0 1 144-42c12-2 25-7 38-7"/><path fill="#d81e06" d="M390 782c-5 0-13-2-20-11-15-18-12-41-9-60v-1-6c5-36 14-72 22-106 11-43 22-86 24-130 1-44-20-53-30-55a42 42 0 0 0-9-1c-19 0-35 13-42 21-5 5-9 12-13 19-8 13-17 29-34 36a41 41 0 0 1-16 3c-20 0-39-14-44-32-11-35 13-65 68-87a796 796 0 0 1 154-44h1c10-2 20-5 31-5a59 59 0 0 1 8 0c12 2 21 8 27 17 6 11 6 25-1 40-9 22-19 48-17 74 1 13 6 14 11 14 8 0 18-4 26-10 20-15 40-30 58-46h1c29-24 60-48 94-68 15-9 28-14 39-14h2c15 0 21 7 23 11 6 13-4 27-9 32-14 17-35 26-53 34l-20 10c-27 14-50 29-67 43-23 19-38 39-44 58-5 17-2 36 7 55 20 38 67 73 110 82a108 108 0 0 0 23 3c18 0 36-5 48-14a112 112 0 0 0 10-9c17-18 33-33 49-33 6 0 18 3 23 20 6 22 0 42-19 60-16 15-37 25-53 31-24 9-52 14-80 14h-1a249 249 0 0 1-81-14 222 222 0 0 1-73-42 195 195 0 0 1-49-65c-3-6-6-9-9-9-4 0-11 7-13 17-3 17-3 35-3 53 0 29 0 58-13 86-5 11-19 29-37 29zm-22-382a54 54 0 0 1 12 1c16 4 28 14 34 31 4 13 5 27 4 37-1 45-12 89-23 132-9 34-18 69-22 104l-1 6v2c-2 17-5 37 7 51 3 4 7 6 11 6 11 0 23-13 27-22 11-25 11-53 11-81 0-18 0-37 4-55 3-15 13-27 24-27 5 0 13 2 20 16a183 183 0 0 0 46 61 210 210 0 0 0 69 40 237 237 0 0 0 78 13c27 0 53-4 76-13 15-5 35-15 49-29 15-14 21-31 16-47-4-12-10-12-12-12-11 0-26 13-41 29a126 126 0 0 1-10 10h-1a95 95 0 0 1-55 16 120 120 0 0 1-25-2c-46-10-97-48-118-89a85 85 0 0 1-8-64c7-21 22-42 47-63a398 398 0 0 1 90-55c18-8 36-16 49-30 5-6 10-15 8-20-2-4-8-5-13-5h-2c-9 1-20 5-33 13-33 19-64 44-93 67v1l-59 45c-10 8-23 12-33 12-18 0-22-15-23-24-2-29 8-56 19-80 5-11 5-21 1-29-4-6-10-10-19-11a45 45 0 0 0-6 0c-10 0-19 2-28 4l-1 1-9 2a1510 1510 0 0 0-144 41c-28 11-72 35-61 72 4 14 18 24 33 24a29 29 0 0 0 12-2c13-6 20-18 28-31l14-21c9-9 28-25 51-25z"/></svg>